<?xml version="1.0" encoding="UTF-8" standalone="no"?>
<!-- Created with Inkscape (http://www.inkscape.org/) -->

<svg
   xmlns:dc="http://purl.org/dc/elements/1.1/"
   xmlns:cc="http://creativecommons.org/ns#"
   xmlns:rdf="http://www.w3.org/1999/02/22-rdf-syntax-ns#"
   xmlns:svg="http://www.w3.org/2000/svg"
   xmlns="http://www.w3.org/2000/svg"
   xmlns:sodipodi="http://sodipodi.sourceforge.net/DTD/sodipodi-0.dtd"
   xmlns:inkscape="http://www.inkscape.org/namespaces/inkscape"
   width="300"
   height="200"
   viewBox="0 0 79.374998 52.916668"
   version="1.1"
   id="svg8"
   inkscape:version="0.92.4 (5da689c313, 2019-01-14)"
   sodipodi:docname="rocket-logo.svg">
  <defs
     id="defs2" />
  <sodipodi:namedview
     id="base"
     pagecolor="#ffffff"
     bordercolor="#666666"
     borderopacity="1.0"
     inkscape:pageopacity="0.0"
     inkscape:pageshadow="2"
     inkscape:zoom="1.4"
     inkscape:cx="187.46"
     inkscape:cy="122.01806"
     inkscape:document-units="mm"
     inkscape:current-layer="layer1"
     showgrid="true"
     inkscape:window-width="1266"
     inkscape:window-height="720"
     inkscape:window-x="47"
     inkscape:window-y="49"
     inkscape:window-maximized="0"
     units="px">
    <inkscape:grid
       type="xygrid"
       id="grid819" />
  </sodipodi:namedview>
  <metadata
     id="metadata5">
    <rdf:RDF>
      <cc:Work
         rdf:about="">
        <dc:format>image/svg+xml</dc:format>
        <dc:type
           rdf:resource="http://purl.org/dc/dcmitype/StillImage" />
        <dc:title></dc:title>
      </cc:Work>
    </rdf:RDF>
  </metadata>
  <g
     inkscape:label="Layer 1"
     inkscape:groupmode="layer"
     id="layer1"
     transform="translate(0,-244.08332)">
    <text
       xml:space="preserve"
       style="font-style:normal;font-variant:normal;font-weight:normal;font-stretch:normal;font-size:17.14981461px;line-height:1.25;font-family:Samanata;-inkscape-font-specification:Samanata;letter-spacing:0px;word-spacing:0px;fill:#08114a;fill-opacity:1;stroke:none;stroke-width:0.26796585"
       x="5.7152357"
       y="283.04013"
       id="text817"
       transform="scale(1.0210206,0.97941217)"
       inkscape:export-xdpi="110"
       inkscape:export-ydpi="110"><tspan
         sodipodi:role="line"
         id="tspan815"
         x="5.7152357"
         y="283.04013"
         style="fill:#08114a;fill-opacity:1;stroke-width:0.26796585">R</tspan></text>
    <text
       xml:space="preserve"
       style="font-style:normal;font-variant:normal;font-weight:normal;font-stretch:normal;font-size:16.14544678px;line-height:1.25;font-family:Samanata;-inkscape-font-specification:Samanata;letter-spacing:0px;word-spacing:0px;fill:#08114a;fill-opacity:1;stroke:none;stroke-width:0.25227261"
       x="30.453669"
       y="277.46268"
       id="text821"
       inkscape:export-xdpi="110"
       inkscape:export-ydpi="110"><tspan
         sodipodi:role="line"
         id="tspan819"
         x="30.453669"
         y="277.46268"
         style="fill:#08114a;fill-opacity:1;stroke-width:0.25227261">CKET</tspan></text>
    <path
       style="fill:#ff4b34;fill-opacity:1;stroke-width:0.04606786"
       d="m 15.581772,284.05061 c -1.056123,-0.14911 -2.047608,-0.86523 -2.519651,-1.81989 -0.264472,-0.53487 -0.333873,-0.84948 -0.333227,-1.51055 4.3e-4,-0.45479 0.02204,-0.65138 0.102752,-0.93514 0.364475,-1.2815 1.305024,-2.21565 2.542823,-2.52552 0.365511,-0.0915 1.282953,-0.0784 1.655779,0.0236 0.670804,0.18357 1.262711,0.54283 1.736097,1.05368 0.266808,0.28793 0.273049,0.29147 0.454792,0.25772 0.292631,-0.0544 0.664948,-0.0434 1.013493,0.0298 1.235067,0.2593 2.183226,1.42164 2.187424,2.68152 0.0018,0.56154 0.374289,1.10283 0.892056,1.29654 0.237347,0.0888 0.35624,0.0988 1.181797,0.0988 0.825558,0 0.944451,-0.0103 1.181796,-0.0988 0.517768,-0.19371 0.890188,-0.735 0.892058,-1.29654 0.0042,-1.25828 0.953931,-2.42255 2.187423,-2.68152 0.348547,-0.0733 0.720864,-0.0842 1.013497,-0.0298 0.18174,0.0337 0.187982,0.0301 0.454789,-0.25772 0.642802,-0.69369 1.455641,-1.08367 2.395105,-1.14911 1.627947,-0.1134 3.068102,0.9433 3.539885,2.59735 0.133604,0.46839 0.143176,1.35707 0.01947,1.80645 -0.251195,0.91243 -0.89448,1.70132 -1.729768,2.1213 -0.752018,0.37811 0.191926,0.34434 -9.816045,0.35121 -4.902774,0.004 -8.976324,-0.003 -9.052336,-0.0133 z m 5.708278,-1.59898 c -0.138307,-0.30211 -0.247349,-0.7934 -0.248436,-1.11934 -0.0027,-0.79801 -0.68928,-1.44214 -1.472533,-1.38139 -0.236636,0.0183 -0.384064,0.0677 -0.725335,0.24282 -0.235582,0.12084 -0.438695,0.20943 -0.451365,0.19677 -0.0127,-0.0128 -0.127253,-0.23615 -0.25462,-0.49661 -0.347251,-0.71009 -0.788425,-1.09545 -1.45197,-1.26828 -1.143012,-0.29772 -2.224081,0.36996 -2.530664,1.56295 -0.279575,1.0879 0.333904,2.15867 1.403611,2.44988 0.152411,0.0414 0.953803,0.0572 3.026414,0.0595 l 2.819109,0.003 -0.114207,-0.24946 z m 12.091669,0.20063 c 0.332589,-0.0767 0.691384,-0.27874 0.944667,-0.53203 0.63208,-0.63208 0.753918,-1.55333 0.322069,-2.43527 -0.617966,-1.26207 -2.295478,-1.51429 -3.322897,-0.49964 -0.173396,0.17124 -0.306991,0.37214 -0.47243,0.71045 -0.126868,0.25942 -0.240231,0.48125 -0.251928,0.49295 -0.01167,0.0115 -0.221176,-0.08 -0.465511,-0.20371 -0.423454,-0.21443 -0.461812,-0.22496 -0.819244,-0.22496 -0.329601,0 -0.404874,0.0165 -0.621859,0.13673 -0.453591,0.25124 -0.74271,0.73112 -0.744391,1.23551 -0.0011,0.32594 -0.110127,0.81723 -0.248436,1.11934 l -0.114207,0.24946 2.796072,-0.001 c 1.716149,-8.6e-4 2.874105,-0.0191 2.998097,-0.0477 z m -9.79206,-2.22001 c -0.484622,-0.84246 -0.922715,-1.61519 -0.973541,-1.71716 -0.1865,-0.37419 -0.230272,-0.87679 -0.121262,-1.39242 l 0.03165,-0.14973 h -2.127867 -2.127864 l 0.01632,-2.06153 c 0.01588,-2.00766 0.0191,-2.06996 0.12275,-2.38402 0.209586,-0.63497 0.448588,-1.02464 0.918297,-1.49721 l 0.435006,-0.43763 -0.121262,-0.59889 c -0.21107,-1.04242 -0.260145,-1.85741 -0.164464,-2.73134 0.317969,-2.90424 1.966621,-5.33332 4.569448,-6.73251 l 0.449284,-0.24151 0.449039,0.23991 c 1.427623,0.76276 2.636106,1.91855 3.447439,3.29713 0.857327,1.45672 1.27621,3.26516 1.137776,4.91211 -0.02826,0.3362 -0.107177,0.89112 -0.175369,1.23317 l -0.123982,0.62193 0.432441,0.43763 c 0.467273,0.47291 0.712134,0.87205 0.918483,1.49721 0.103662,0.31406 0.106869,0.37636 0.12275,2.38402 l 0.01633,2.06153 h -2.127864 -2.127865 l 0.03165,0.14973 c 0.109011,0.51563 0.06523,1.01823 -0.121263,1.39242 -0.162361,0.32574 -1.853672,3.24891 -1.879787,3.24891 -0.01382,0 -0.421624,-0.68929 -0.906245,-1.53175 z m 1.24888,-1.77362 c 0.353254,-0.60839 0.407046,-0.81835 0.278859,-1.0885 -0.121262,-0.25554 -0.318281,-0.37415 -0.621494,-0.37415 -0.303213,0 -0.500227,0.11866 -0.621493,0.37415 -0.128189,0.27015 -0.07439,0.48011 0.27886,1.0885 0.172862,0.29771 0.327049,0.5413 0.342633,0.5413 0.01559,0 0.169772,-0.24359 0.342635,-0.5413 z m -3.981995,-2.91475 c 0,-0.038 -0.617916,-2.85659 -0.71581,-3.26521 -0.02594,-0.10826 -0.02874,-0.10724 -0.138355,0.0541 -0.06153,0.0906 -0.158354,0.27503 -0.215161,0.40995 -0.09724,0.23097 -0.104214,0.32153 -0.119068,1.54674 l -0.01578,1.30142 h 0.602088 c 0.378888,0 0.60209,-0.0175 0.60209,-0.0471 z m 5.873547,-0.0566 c 0.320413,-1.3455 1.367677,-6.27021 1.408258,-6.62225 0.141793,-1.23014 -0.09099,-2.60047 -0.645711,-3.80118 -0.547725,-1.18555 -1.68247,-2.44528 -2.775452,-3.08113 -0.252262,-0.14677 -0.216515,-0.15804 -0.843197,0.26592 -0.236028,0.15968 -0.643899,0.50902 -0.946939,0.81106 -1.292876,1.28859 -2.02307,2.93634 -2.103064,4.74577 -0.01399,0.31671 -0.0023,0.78664 0.02598,1.04426 0.03742,0.34072 1.109439,5.3819 1.411507,6.63755 l 0.02494,0.10365 h 2.209501 2.209503 z m -2.728745,-5.54157 c -1.05184,-0.28327 -1.718915,-1.29254 -1.540806,-2.33119 0.151775,-0.88508 0.832753,-1.55662 1.735277,-1.71121 0.828235,-0.14188 1.712496,0.30397 2.112464,1.06512 0.319777,0.60854 0.333836,1.24139 0.04138,1.86275 -0.413394,0.87831 -1.431396,1.36146 -2.348315,1.11453 z m 0.818249,-1.40377 c 0.484383,-0.24712 0.473029,-0.98112 -0.01879,-1.2145 -0.603521,-0.2864 -1.211375,0.33578 -0.908355,0.92975 0.175509,0.34402 0.572158,0.46585 0.927141,0.28475 z m 4.504065,5.74758 c -0.01487,-1.22521 -0.02185,-1.31577 -0.119068,-1.54674 -0.05682,-0.13492 -0.153631,-0.3194 -0.215163,-0.40995 -0.109614,-0.16133 -0.112411,-0.16242 -0.13835,-0.0541 -0.0979,0.40862 -0.71581,3.22727 -0.71581,3.2652 0,0.0296 0.2232,0.0471 0.602088,0.0471 h 0.602087 z"
       id="path817"
       inkscape:connector-curvature="0"
       inkscape:export-xdpi="110"
       inkscape:export-ydpi="110" />
  </g>
</svg>
