<?xml version="1.0" encoding="UTF-8" standalone="no"?>
<svg
   xmlns:dc="http://purl.org/dc/elements/1.1/"
   xmlns:cc="http://creativecommons.org/ns#"
   xmlns:rdf="http://www.w3.org/1999/02/22-rdf-syntax-ns#"
   xmlns:svg="http://www.w3.org/2000/svg"
   xmlns="http://www.w3.org/2000/svg"
   xmlns:sodipodi="http://sodipodi.sourceforge.net/DTD/sodipodi-0.dtd"
   xmlns:inkscape="http://www.inkscape.org/namespaces/inkscape"
   id="a13970f5-fcb6-45bc-88b6-f9395b0a599f"
   data-name="Layer 1"
   width="959.41852"
   height="826.20679"
   viewBox="0 0 959.41854 826.20679"
   version="1.1"
   sodipodi:docname="rocket.svg"
   inkscape:version="0.92.4 (5da689c313, 2019-01-14)">
  <metadata
     id="metadata97">
    <rdf:RDF>
      <cc:Work
         rdf:about="">
        <dc:format>image/svg+xml</dc:format>
        <dc:type
           rdf:resource="http://purl.org/dc/dcmitype/StillImage" />
        <dc:title></dc:title>
      </cc:Work>
    </rdf:RDF>
  </metadata>
  <defs
     id="defs95" />
  <sodipodi:namedview
     pagecolor="#ffffff"
     bordercolor="#666666"
     borderopacity="1"
     objecttolerance="10"
     gridtolerance="10"
     guidetolerance="10"
     inkscape:pageopacity="0"
     inkscape:pageshadow="2"
     inkscape:window-width="1266"
     inkscape:window-height="714"
     id="namedview93"
     showgrid="false"
     inkscape:zoom="0.8079198"
     inkscape:cx="490.88671"
     inkscape:cy="645.28593"
     inkscape:window-x="31"
     inkscape:window-y="14"
     inkscape:window-maximized="0"
     inkscape:current-layer="a13970f5-fcb6-45bc-88b6-f9395b0a599f" />
  <path
     d="m 578.15879,659.81106 8.67165,19.44392 c -7.04887,-1.12221 -13.60391,4.89778 -13.75121,12.62878 -0.1473,7.731 6.13979,15.77421 13.18911,16.8731 -1.34708,6.00231 -7.16088,8.64855 -12.20732,11.07451 -5.04644,2.42596 -10.48544,6.44956 -10.11,12.84517 0.30146,5.13535 4.548,9.66922 9.05769,11.49215 4.50969,1.82293 9.24135,1.54272 13.80858,1.23684 -6.921,7.23984 -7.59561,20.84776 -1.51747,30.61081 6.07814,9.76305 18.21665,14.56912 27.30539,10.8112 -6.42186,7.98853 -5.02668,22.61792 2.94328,30.86218 8.03432,8.31083 19.678,9.11525 29.85706,8.23972 a 132.23791,132.23791 0 0 0 71.00684,-28.14 c 7.78173,-6.1834 15.05042,-13.45556 19.48953,-22.94127 4.43911,-9.48571 5.747,-21.49572 1.61222,-32.29045 1.1152,13.52239 14.64995,24.20276 26.82589,24.80038 12.17594,0.59762 22.80664,-6.26052 31.84054,-14.08111 12.014,-10.40049 23.13736,-24.9791 21.48841,-42.967 -0.81631,-8.90487 -4.70578,-17.46936 -8.52054,-25.765 l -7.39565,-16.08273 c -2.98571,-6.49278 -6.03914,-13.09517 -10.53293,-18.54375 -4.49379,-5.44858 -10.73125,-9.66651 -16.97307,-9.62643 1.42718,-6.5202 2.86077,-13.28339 1.66478,-20.211 -1.19599,-6.92761 -5.77577,-14.10054 -12.00424,-15.72285 -7.92682,-2.06468 -14.6448,5.25038 -22.6158,4.56081 -7.67069,-0.6636 -14.01,-8.362 -21.45871,-11.4124 a 17.17785,17.17785 0 0 0 -18.53718,3.20639 c -4.722,4.6097 -6.69032,12.39794 -4.99586,19.76719 1.48435,6.45545 5.43465,12.14909 7.83232,18.37489 2.39767,6.2258 2.76983,14.231 -1.8351,17.63129 -5.55664,4.103 -14.01442,-1.48021 -18.35566,-8.23484 -4.34124,-6.75463 -6.83379,-14.93336 -12.32361,-20.614 -6.47924,-6.70451 -16.62148,-8.27573 -23.29257,-3.60845 -6.67109,4.66728 -9.22234,15.11922 -5.85919,24.00383 2.74987,7.26449 9.04909,14.6135 6.86437,21.45428 -2.309,7.2298 -12.41262,6.31432 -18.50707,1.20471 -6.09445,-5.10961 -10.14111,-12.8059 -16.16143,-18.03027 -6.114,-5.30562 -14.09812,-7.63035 -21.10721,-6.14573 a 21.73057,21.73057 0 0 0 -15.57311,13.9151"
     id="path2"
     inkscape:connector-curvature="0"
     style="fill:#e6e6e6" />
  <path
     d="m 718.55594,605.16972 -17.99256,8.35958 a 13.81228,13.81228 0 0 1 -8.73392,1.17747 c -2.61209,-0.61776 -4.37716,-2.21477 -4.84109,-4.3833 l -4.18659,-19.55422 c -0.7905,-3.68869 2.26453,-8.05314 7.26376,-10.37585 l 9.93652,-4.61663 c 4.99924,-2.32271 10.305,-1.8428 12.61429,1.14024 l 12.24431,15.81049 c 1.35812,1.75309 1.4403,4.132 0.22783,6.52669 a 13.81219,13.81219 0 0 1 -6.53255,5.91553 z"
     id="path4"
     inkscape:connector-curvature="0"
     style="fill:#3f3d56" />
  <path
     d="m 160.63951,243.7622 a 353.9984,353.9984 0 0 1 77.50168,-124.05681 c 29.00636,-30.1117 74.15027,-28.86051 74.15027,-28.86051 l 0.25785,-0.32 a 87.58018,87.58018 0 0 1 92.55272,-28.91249 c 4.30426,1.23514 7.615,1.78263 9.18943,1.23249 28.70712,-10.04708 27.35834,-32.72422 52.12616,-50.99278 43.367,-31.98718 187.21094,4.6535 207.4942,63.51371 16.43915,47.70488 89.82021,70.827 117.23582,107.31737 q 6.43059,8.55861 12.618,17.31558 2.90129,4.06824 5.73748,8.19783 a 730.4283,730.4283 0 0 1 52.14715,88.15542 514.11313,514.11313 0 0 1 26.1009,61.68445 c 28.591,83.58209 18.8138,145.8549 -60.02103,130.47014 q -13.99815,-2.739 -27.32378,-4.90113 -19.2962,-3.14892 -37.24641,-5.17566 -24.17227,-2.74893 -45.99366,-3.60217 -7.33723,-0.29524 -14.40509,-0.39579 c -69.67037,-0.966 -121.34893,12.1465 -160.719,32.50168 q -10.01082,5.16279 -18.97332,10.92332 a 236.05444,236.05444 0 0 0 -26.08005,19.31927 254.89837,254.89837 0 0 0 -31.42249,32.19714 l -0.52216,0.6393 c -46.04826,56.326 -61.203,118.68168 -93.23451,129.6607 C 234.88341,746.61352 148.28332,576.45347 139.40227,409.99939 q -0.67263,-12.58159 -0.74315,-25.09128 -0.0416,-5.59155 0.055,-11.15359 c 0.14052,-9.67346 0.567,-19.28471 1.28114,-28.7797 q 0.40006,-5.44542 0.92807,-10.83322 c 0.3879,-3.87342 0.80989,-7.72368 1.2976,-11.54982 3.48327,-28.04639 9.57696,-54.73033 18.41858,-78.82958 z"
     id="path6"
     inkscape:connector-curvature="0"
     style="fill:#ff4b34" />
  <path
     d="m 585.04281,335.34364 c -10.93522,5.09113 -11.11539,27.895 -7.68649,35.28386 l 6.21383,13.37421 39.60938,-18.403 -6.21383,-13.37421 c -3.4356,-7.3858 -20.97965,-21.95475 -31.92289,-16.88086 z"
     id="path8"
     inkscape:connector-curvature="0"
     style="fill:#3f3d56" />
  <path
     d="m 478.60201,527.35955 a 4.33285,4.33285 0 0 1 -4.06983,-5.81934 4.29966,4.29966 0 0 1 2.24317,-2.44043 l 204.55371,-95.03809 a 4.33007,4.33007 0 0 1 5.752,2.10157 4.33573,4.33573 0 0 1 -2.10254,5.752 h -4.9e-4 L 480.42427,526.9533 a 4.30619,4.30619 0 0 1 -1.82226,0.40625 z"
     id="path10"
     inkscape:connector-curvature="0"
     style="fill:#3f3d56" />
  <rect
     x="357.0369"
     y="608.37646"
     width="64.473808"
     height="217.68037"
     transform="rotate(-24.9202)"
     id="rect12"
     style="fill:#e6e6e6" />
  <path
     d="m 419.11379,125.61752 c -10.93522,5.09113 -11.11539,27.895 -7.68649,35.28386 l 6.21383,13.37421 39.60938,-18.403 -6.21383,-13.3742 c -3.4356,-7.38581 -20.97965,-21.95476 -31.92289,-16.88087 z"
     id="path14"
     inkscape:connector-curvature="0"
     style="fill:#3f3d56" />
  <path
     d="m 664.12859,627.86417 -17.99256,8.35958 a 13.81216,13.81216 0 0 1 -8.73392,1.17747 c -2.6121,-0.61775 -4.37717,-2.21476 -4.84109,-4.3833 l -4.1866,-19.55421 c -0.79049,-3.68869 2.26453,-8.05314 7.26377,-10.37585 l 9.93651,-4.61664 c 4.99924,-2.32271 10.305,-1.8428 12.6143,1.14025 l 12.24427,15.81049 c 1.35811,1.75309 1.4403,4.132 0.22783,6.52668 a 13.81219,13.81219 0 0 1 -6.53251,5.91553 z"
     id="path16"
     inkscape:connector-curvature="0"
     style="fill:#3f3d56" />
  <path
     d="m 608.80984,655.30991 -17.99257,8.35958 a 13.81222,13.81222 0 0 1 -8.73392,1.17747 c -2.6121,-0.61776 -4.37716,-2.21476 -4.84109,-4.3833 l -4.18659,-19.55422 c -0.7905,-3.68869 2.26452,-8.05313 7.26376,-10.37584 l 9.93652,-4.61664 c 4.99923,-2.32271 10.305,-1.8428 12.61429,1.14024 l 12.24431,15.8105 c 1.35811,1.75308 1.4403,4.132 0.22783,6.52668 a 13.81219,13.81219 0 0 1 -6.53254,5.91553 z"
     id="path18"
     inkscape:connector-curvature="0"
     style="fill:#3f3d56" />
  <rect
     x="294.9259"
     y="385.28943"
     width="64.473808"
     height="440.01581"
     transform="rotate(-24.9202)"
     id="rect20"
     style="fill:#e6e6e6" />
  <polyline
     points="548.951 403.691 542.39 389.254 546.167 387.512 552.708 401.903 647.423 611.909 643.65 613.662"
     id="polyline22"
     style="fill:#3f3d56" />
  <polyline
     points="622.951 391.691 616.39 377.254 620.167 375.512 626.708 389.903 721.423 599.909 717.65 601.662"
     id="polyline24"
     style="fill:#3f3d56" />
  <path
     d="m 515.88021,229.91722 -79.22567,36.80928 c -5.044,-7.84723 -20.24939,-48.06017 -16.83519,-59.99122 l -2.56272,-11.37766 54.70348,-25.416 7.32219,9.00725 c 10.86912,3.33496 32.02851,41.10585 36.59791,50.96835 z"
     id="path26"
     inkscape:connector-curvature="0"
     style="fill:#e6e6e6" />
  <path
     d="m 474.24603,170.42839 -56.45093,26.22784 c -2.08362,0.968 -4.30262,0.61217 -4.95626,-0.79495 a 1.95213,1.95213 0 0 1 -0.17209,-0.6429 l -2.92164,-31.16788 c -0.1251,-1.33466 1.01667,-2.84708 2.76109,-3.65756 l 37.43681,-17.39355 c 1.74442,-0.81048 3.63664,-0.70769 4.576,0.24866 l 21.93586,22.33363 c 1.12192,1.14229 0.51268,3.09757 -1.36081,4.36726 a 6.08075,6.08075 0 0 1 -0.84803,0.47945 z"
     id="path28"
     inkscape:connector-curvature="0"
     style="fill:#e6e6e6" />
  <path
     d="m 518.52242,414.61739 a 7.62608,7.62608 0 0 1 -1.814,-0.21387 5.60386,5.60386 0 0 1 -3.89648,-3.02539 l -34.51267,-74.28274 c -1.42822,-3.0752 0.48926,-7.00782 4.27442,-8.76661 l 50.53613,-23.48 c 3.78564,-1.75976 8.02734,-0.6875 9.45654,2.38721 l 34.5127,74.2832 a 5.60256,5.60256 0 0 1 -0.20069,4.92872 8.50632,8.50632 0 0 1 -4.07422,3.83789 l -50.53564,23.479 a 8.9197,8.9197 0 0 1 -3.74609,0.85259 z"
     id="path30"
     inkscape:connector-curvature="0"
     style="fill:#3f3d56" />
  <rect
     x="232.60036"
     y="607.60626"
     width="64.473808"
     height="217.68037"
     transform="rotate(-24.9202)"
     id="rect32"
     style="fill:#e6e6e6" />
  <path
     d="m 453.39814,173.68457 -17.14693,7.9667 c -3.30882,1.53733 -7.77287,-1.02438 -9.94972,-5.70968 -2.17685,-4.6853 -1.25568,-9.74905 2.05314,-11.28637 l 17.14693,-7.9667 c 3.30882,-1.53733 7.77287,1.02438 9.94972,5.70968 2.17685,4.6853 1.25569,9.74905 -2.05314,11.28637 z"
     id="path34"
     inkscape:connector-curvature="0"
     style="fill:#3f3d56" />
  <path
     d="m 473.00848,386.54697 c -10.93522,5.09113 -11.11539,27.895 -7.68649,35.28386 l 6.21383,13.37421 39.60938,-18.403 -6.21383,-13.37425 c -3.4356,-7.38576 -20.97965,-21.95471 -31.92289,-16.88082 z"
     id="path36"
     inkscape:connector-curvature="0"
     style="fill:#3f3d56" />
  <path
     d="m 291.36097,341.02827 c -3.862,2.57319 -7.8147,-3.55124 -3.87848,-6.01018 3.86178,-2.57305 7.81451,3.55139 3.87848,6.01018 z"
     id="path38"
     inkscape:connector-curvature="0"
     style="fill:#e6e6e6" />
  <path
     d="m 693.36097,253.02827 c -3.862,2.57319 -7.8147,-3.55124 -3.87848,-6.01018 3.86178,-2.57305 7.81451,3.55139 3.87848,6.01018 z"
     id="path40"
     inkscape:connector-curvature="0"
     style="fill:#e6e6e6" />
  <path
     d="m 419.36097,323.02827 c -3.862,2.57319 -7.8147,-3.55124 -3.87848,-6.01018 3.86178,-2.57305 7.81451,3.55139 3.87848,6.01018 z"
     id="path42"
     inkscape:connector-curvature="0"
     style="fill:#e6e6e6" />
  <path
     d="m 291.36097,563.02827 c -3.862,2.57319 -7.8147,-3.55124 -3.87848,-6.01018 3.86178,-2.57305 7.81451,3.55139 3.87848,6.01018 z"
     id="path44"
     inkscape:connector-curvature="0"
     style="fill:#e6e6e6" />
  <path
     d="m 488.36097,62.02827 c -3.862,2.57319 -7.8147,-3.55124 -3.87848,-6.01018 3.86178,-2.57305 7.81451,3.55139 3.87848,6.01018 z"
     id="path46"
     inkscape:connector-curvature="0"
     style="fill:#e6e6e6" />
  <path
     d="m 298.36097,180.02827 c -3.862,2.57319 -7.8147,-3.55124 -3.87848,-6.01018 3.86178,-2.57305 7.81451,3.55139 3.87848,6.01018 z"
     id="path48"
     inkscape:connector-curvature="0"
     style="fill:#e6e6e6" />
  <polygon
     points="568.823,147.299 571.28,147.838 571.639,146.2 569.182,145.661 569.72,143.203 568.082,142.844 567.543,145.302 565.086,144.764 564.727,146.402 567.184,146.941 566.646,149.398 568.284,149.757 "
     id="polygon50"
     style="fill:#e6e6e6" />
  <polygon
     points="168.726,352.078 171.183,352.616 171.542,350.978 169.085,350.439 169.623,347.982 167.985,347.623 167.446,350.08 164.988,349.542 164.629,351.18 167.087,351.719 166.549,354.177 168.187,354.535 "
     id="polygon52"
     style="fill:#e6e6e6" />
  <path
     d="m 675.42927,455.43626 a 8.50983,8.50983 0 0 1 -11.29014,-4.12709 l -10.11253,-21.7655 a 8.5,8.5 0 0 1 15.41723,-7.163 l 10.11253,21.76549 a 8.50983,8.50983 0 0 1 -4.12709,11.2901 z"
     id="path54"
     inkscape:connector-curvature="0"
     style="fill:#3f3d56" />
  <path
     d="m 503.42927,535.43626 a 8.50983,8.50983 0 0 1 -11.29014,-4.12709 l -10.11253,-21.7655 a 8.5,8.5 0 0 1 15.41723,-7.163 l 10.11253,21.76549 a 8.50983,8.50983 0 0 1 -4.12709,11.2901 z"
     id="path56"
     inkscape:connector-curvature="0"
     style="fill:#3f3d56" />
  <path
     d="m 659.85103,407.88149 -67.80585,31.50349 c -4.317,-6.71611 -17.33058,-41.13265 -14.40852,-51.34393 l 1.43426,-11.42307 40.48614,-19.86306 8.9714,7.505 c 12.63995,-4.27339 31.22003,27.04802 31.32257,43.62157 z"
     id="path58"
     inkscape:connector-curvature="0"
     style="fill:#e6e6e6" />
  <path
     d="m 628.37105,405.69715 -17.14693,7.96671 c -3.30882,1.53733 -8.34353,-2.25264 -11.22164,-8.44728 -2.87811,-6.19464 -2.52761,-12.48665 0.78121,-14.024 l 17.14693,-7.96671 c 3.30882,-1.53732 8.34353,2.25264 11.22164,8.44728 2.87811,6.19464 2.52761,12.48668 -0.78121,14.024 z"
     id="path60"
     inkscape:connector-curvature="0"
     style="fill:#3f3d56" />
  <polyline
     points="482.951 446.691 476.39 432.254 480.167 430.512 486.708 444.903 581.423 654.909 577.65 656.662"
     id="polyline62"
     style="fill:#3f3d56" />
  <path
     d="m 547.81672,459.08482 -67.8059,31.50349 c -10.00311,-5.16492 -25.29108,-38.961 -14.40851,-51.34394 l 1.43428,-11.42306 40.48614,-19.86306 8.9714,7.505 c 9.30241,2.85414 27.41184,35.18067 31.32259,43.62157 z"
     id="path64"
     inkscape:connector-curvature="0"
     style="fill:#e6e6e6" />
  <path
     d="m 514.9412,453.89687 -17.14693,7.9667 c -3.30882,1.53733 -8.03047,-1.57883 -10.52388,-6.94547 -2.49341,-5.36664 -1.82985,-10.98484 1.479,-12.52216 l 17.14693,-7.96671 c 3.30882,-1.53732 8.03047,1.57884 10.52388,6.94547 2.49341,5.36663 1.82982,10.98484 -1.479,12.52217 z"
     id="path66"
     inkscape:connector-curvature="0"
     style="fill:#3f3d56" />
  <circle
     cx="171.29146"
     cy="204.84489"
     r="103"
     id="circle68"
     style="fill:#08114f;fill-opacity:0.94117647" />
  <path
     d="m 593.60549,312.12392 62.59321,-182.809 -68.73123,180.62069 a 3.44161,3.44161 0 1 0 6.138,2.18831 z"
     id="path70"
     inkscape:connector-curvature="0"
     style="opacity:0.3;fill:#f0f0f0" />
  <path
     d="m 714.48443,203.15793 q -17.10623,6.10836 -37.92788,12.00083 c -71.79992,20.311 -168.03984,36.15428 -270.99132,44.61271 -102.95105,8.45828 -200.31474,8.51948 -274.15382,0.17426 -35.969414,-4.06578 -64.419189,-9.91317 -84.558617,-17.381 -21.322084,-7.9053 -32.525819,-17.43191 -33.300432,-28.31364 -1.508443,-21.19968 37.426335,-39.85854 70.354333,-51.77816 l 0.891799,2.84289 c -45.218862,16.36871 -69.532217,33.66657 -68.461712,48.70667 1.362842,19.15595 43.41247,34.80631 115.366679,42.93958 73.67684,8.327 170.86062,8.26316 273.64927,-0.18138 102.78792,-8.44531 198.85119,-24.25739 270.49315,-44.52332 69.9649,-19.79057 109.31257,-42.12921 107.94917,-61.28547 -1.13202,-15.90466 -30.31071,-29.51036 -82.16113,-38.3124 l 0.43589,-2.963 c 37.67522,6.39573 82.91952,18.70823 84.50965,41.04675 0.77418,10.88188 -8.95136,22.12737 -28.90691,33.424 -11.3755,6.43924 -25.8292,12.79214 -43.18812,18.99068 z"
     id="path72"
     inkscape:connector-curvature="0"
     style="fill:#3f3d56;stroke-width:0.9647342" />
  <circle
     cx="783.42529"
     cy="375.13623"
     r="10.70234"
     id="circle74"
     style="fill:#ff6584" />
  <circle
     cx="851.42529"
     cy="665.13623"
     r="10.70234"
     id="circle76"
     style="fill:#f2f2f2" />
  <circle
     cx="486.42532"
     cy="720.13623"
     r="20.86614"
     id="circle78"
     style="fill:#f2f2f2" />
  <circle
     cx="327.42532"
     cy="454.13623"
     r="10.70234"
     id="circle80"
     style="fill:#3f3d56" />
  <polygon
     points="761.723,546.349 713.843,548.227 687.226,478.768 733.402,490.721 "
     id="polygon82"
     style="fill:#e6e6e6" />
  <polygon
     points="670.606,563.557 658.722,573.824 580.645,398.574 606.059,424.002 "
     id="polygon84"
     style="fill:#cccccc" />
  <polygon
     points="588.304,598.694 603.88,596.688 525.386,421.624 527.38,457.52 "
     id="polygon86"
     style="fill:#cccccc" />
  <polygon
     points="517.187,667.008 552.9,635.061 523.723,566.637 498.854,607.339 "
     id="polygon88"
     style="fill:#e6e6e6" />
  <path
     d="m 837.42144,582.07469 q -21.29021,0.58748 -46.70852,-0.17554 C 703.06485,579.26019 589.24244,564.81742 470.21253,541.23273 351.18316,517.64803 241.16659,487.73722 160.43046,457.01259 121.10143,442.0451 90.840706,427.68512 70.489728,414.33047 48.943342,400.19265 39.349613,387.61569 41.973972,376.95058 c 5.113524,-20.77753 55.100814,-26.6717 96.134598,-27.95735 l 0.0933,2.99852 c -56.350201,1.76543 -89.381178,10.85613 -93.008564,25.59685 -4.620772,18.77444 37.851854,46.71366 116.526714,76.65502 80.5587,30.65723 190.37287,60.51012 309.21433,84.05801 118.84092,23.54691 232.45373,37.96518 319.90883,40.59872 85.40756,2.57281 137.04469,-6.72015 141.66491,-25.49506 3.83594,-15.58806 -24.75324,-37.60632 -80.50071,-62.00035 l 1.44531,-2.70491 c 40.50685,17.72507 87.66212,43.44936 82.27463,65.34326 -2.62493,10.66515 -17.22887,18.44682 -43.40665,23.12861 -14.9223,2.6684 -33.29443,4.30663 -54.89918,4.90279 z"
     id="path90"
     inkscape:connector-curvature="0"
     style="fill:#3f3d56;stroke-width:1.04863644" />
  <circle
     cx="169.04031"
     cy="203.54994"
     r="103"
     id="circle68-3"
     style="fill:#08114f;fill-opacity:0.94117647" />
  <circle
     style="fill:#3f3d56"
     cx="71.767952"
     cy="516.37927"
     r="10.70234"
     id="circle80-3" />
  <circle
     style="fill:#ff4b34;fill-opacity:1"
     cx="81.39537"
     cy="526.00665"
     r="10.70234"
     id="circle80-6" />
  <circle
     style="fill:#ff4b34;fill-opacity:1"
     cx="203.37875"
     cy="699.73138"
     r="10.70234"
     id="circle80-6-5" />
  <circle
     style="fill:#3f3d56"
     cx="184.99913"
     cy="700.16901"
     r="10.70234"
     id="circle80-3-7" />
  <path
     inkscape:connector-curvature="0"
     style="fill:#3f3d56;stroke-width:1.21716297"
     d="m 172.27846,630.26924 q 21.086,0 46.22219,-1.99202 c 86.67503,-6.8797 198.94555,-30.79854 316.1306,-67.34857 117.1845,-36.55001 225.28363,-81.3671 304.383,-126.19218 38.53171,-21.83647 68.10451,-42.50614 87.8961,-61.4363 20.95416,-20.04037 30.1198,-37.50885 27.24339,-51.91806 -5.60453,-28.07165 -55.23052,-34.21315 -95.87473,-34.42178 l -0.0139,4.08238 c 55.81522,0.28636 88.74342,11.41256 92.71917,31.32815 5.06446,25.36533 -36.23893,64.96517 -113.31879,108.64739 -78.92545,44.72673 -186.82575,89.45745 -303.82527,125.95033 -116.99899,36.49154 -229.06271,60.36919 -315.54691,67.23427 -84.45936,6.70563 -135.807124,-3.99732 -140.871042,-29.36332 -4.20433,-21.0604 23.513772,-52.08486 78.047872,-87.36046 l -1.5012,-3.62522 c -39.62519,25.63178 -85.620893,62.39442 -79.716003,91.97438 2.876972,14.40923 17.53394,24.44643 43.564253,29.83244 14.83823,3.0697 33.06376,4.60857 54.46127,4.60857 z"
     id="path90-3" />
  <circle
     style="fill:#ff4b34;fill-opacity:1"
     cx="849.13104"
     cy="174.70891"
     r="10.70234"
     id="circle80-6-5-5" />
  <circle
     style="fill:#3f3d56"
     cx="829.51367"
     cy="188.14287"
     r="10.70234"
     id="circle80-3-7-6" />
</svg>
